<?xml version="1.0" standalone="no"?>
<!DOCTYPE svg PUBLIC "-//W3C//DTD SVG 20010904//EN"
 "http://www.w3.org/TR/2001/REC-SVG-20010904/DTD/svg10.dtd">
<svg version="1.0" xmlns="http://www.w3.org/2000/svg"
 width="883.000000pt" height="883.000000pt" viewBox="0 0 883.000000 883.000000"
 preserveAspectRatio="xMidYMid meet">
<metadata>
Created by potrace 1.14, written by Peter Selinger 2001-2017
</metadata>
<g transform="translate(0.000000,883.000000) scale(0.100000,-0.100000)"
fill="#000000" stroke="none">
<path d="M3519 7476 c-102 -18 -190 -41 -269 -70 -36 -13 -74 -26 -85 -30 -25
-9 -130 -61 -171 -84 -42 -24 -159 -122 -159 -134 0 -5 -5 -12 -11 -16 -14 -9
-58 -92 -59 -112 0 -8 -3 -19 -6 -25 -8 -12 -6 -196 2 -210 3 -5 5 -25 4 -42
-1 -18 2 -33 6 -33 5 0 8 -3 7 -7 -3 -13 18 -97 40 -163 3 -8 7 -24 9 -35 2
-10 7 -22 12 -25 5 -3 12 -16 15 -30 4 -14 16 -44 27 -67 10 -24 19 -46 20
-50 0 -5 7 -15 14 -23 7 -8 14 -18 14 -23 1 -14 34 -72 45 -79 6 -4 8 -8 3 -8
-4 0 5 -19 20 -42 49 -79 78 -123 83 -128 3 -3 16 -22 30 -42 14 -21 29 -38
33 -38 5 0 6 -4 3 -8 -3 -5 6 -15 19 -22 14 -7 25 -17 25 -21 0 -12 78 -82
108 -98 15 -8 31 -20 35 -27 4 -8 13 -14 19 -14 7 0 21 -9 32 -20 33 -30 278
-159 346 -181 14 -4 45 -15 70 -24 125 -46 267 -67 384 -55 69 7 94 16 121 45
6 5 25 22 43 38 19 15 31 27 27 27 -4 0 1 7 9 16 9 8 14 20 11 25 -4 5 -1 9 5
9 6 0 8 5 5 10 -3 6 -1 10 4 10 6 0 11 9 11 20 0 11 4 20 9 20 5 0 7 9 4 20
-3 11 -1 20 5 20 6 0 9 9 7 20 -2 11 0 20 5 20 5 0 7 11 4 25 -3 15 0 25 7 25
6 0 9 9 6 20 -3 11 -1 23 5 26 5 3 8 15 5 25 -6 23 1 24 22 5 30 -27 176 -95
266 -125 50 -16 146 -45 215 -65 69 -20 139 -41 155 -47 17 -6 56 -19 87 -29
103 -34 214 -99 283 -164 37 -35 67 -69 68 -77 2 -8 10 -25 20 -39 9 -13 17
-30 17 -37 0 -7 5 -13 11 -13 6 0 8 -9 4 -20 -3 -11 -2 -20 3 -20 5 0 9 -6 10
-12 0 -7 3 -23 6 -35 3 -13 8 -33 11 -45 3 -13 8 -24 13 -26 4 -1 6 -20 4 -42
-2 -22 1 -46 7 -53 8 -10 7 -17 -1 -25 -9 -9 -9 -12 1 -12 7 0 9 -4 6 -10 -3
-5 -3 -16 2 -22 9 -15 11 -52 17 -243 2 -77 5 -140 6 -140 1 0 3 -27 4 -60 1
-34 5 -65 8 -70 3 -6 6 -37 7 -70 0 -33 5 -75 10 -93 6 -20 6 -32 0 -32 -6 0
-6 -7 1 -19 7 -14 7 -22 -1 -27 -8 -5 -7 -9 2 -14 7 -5 12 -25 11 -45 -1 -21
2 -43 5 -49 7 -10 12 -33 15 -68 1 -10 6 -18 11 -18 5 0 7 -7 4 -15 -4 -8 -2
-17 4 -20 5 -4 7 -10 4 -15 -3 -4 5 -30 17 -56 12 -27 23 -55 24 -61 1 -7 9
-20 18 -29 14 -14 17 -22 15 -40 0 -3 9 -14 21 -24 12 -10 20 -22 19 -25 -3
-9 21 -44 44 -64 9 -8 17 -21 17 -28 0 -7 9 -17 20 -23 11 -6 20 -16 20 -22 0
-11 118 -128 129 -128 3 0 22 -15 41 -33 20 -17 43 -36 52 -42 8 -5 43 -29 76
-52 34 -24 64 -43 68 -43 4 0 15 -6 23 -14 14 -12 161 -93 252 -139 44 -22
121 -27 127 -9 2 7 13 22 25 33 11 10 17 19 13 19 -4 0 0 7 8 16 9 8 16 32 16
53 0 38 -1 38 -92 86 -125 64 -272 151 -288 170 -7 8 -16 15 -21 15 -8 0 -36
20 -64 48 -8 6 -17 12 -20 12 -10 0 -71 52 -65 55 3 1 -15 19 -38 39 -24 20
-41 36 -37 36 4 0 -4 9 -19 21 -14 11 -26 27 -26 34 0 8 -10 21 -22 29 -12 9
-18 16 -13 16 6 0 2 5 -7 11 -10 5 -18 16 -18 24 0 8 -9 20 -21 28 -12 9 -16
16 -9 19 8 2 5 12 -7 28 -11 14 -27 48 -37 75 -10 28 -20 57 -23 65 -8 20 -13
49 -16 83 -1 15 -5 27 -9 27 -5 0 -6 10 -4 23 2 12 -3 29 -10 38 -10 11 -12
23 -5 40 6 17 4 32 -7 52 -13 21 -14 31 -5 46 9 14 7 30 -7 72 -9 30 -13 57
-8 60 12 8 7 179 -6 204 -13 25 -14 37 -5 50 10 14 5 95 -7 103 -8 6 -11 47
-4 55 9 10 4 64 -7 75 -8 8 -10 19 -5 26 12 16 9 35 -7 45 -9 6 -12 18 -7 37
4 16 7 34 6 39 -2 30 -9 63 -19 88 -6 16 -11 42 -11 58 0 16 -4 29 -10 29 -5
0 -7 6 -4 14 3 8 0 17 -5 21 -6 3 -9 11 -6 16 4 5 1 9 -5 9 -7 0 -10 7 -6 15
3 8 1 15 -4 15 -6 0 -10 7 -10 15 0 9 -9 25 -20 37 -10 12 -17 25 -14 30 3 4
0 8 -7 8 -7 0 -10 2 -7 5 9 9 -114 132 -168 168 -116 79 -289 149 -564 227
-224 64 -323 106 -381 163 -27 27 -47 52 -44 57 3 5 1 11 -4 15 -6 3 -8 12 -4
20 3 8 1 15 -4 15 -5 0 -9 36 -9 80 1 44 4 80 8 80 3 0 5 20 4 45 -1 25 2 45
7 45 5 0 6 11 3 25 -4 14 -2 25 3 25 6 0 8 9 6 20 -2 11 0 22 5 25 4 3 6 14 3
24 -3 10 0 28 6 40 8 15 8 21 1 21 -7 0 -8 6 -1 18 5 10 6 24 1 32 -4 7 -4 24
1 37 5 14 5 23 -1 23 -6 0 -10 15 -10 34 0 19 -5 38 -10 41 -6 4 -8 10 -5 15
3 5 1 11 -5 15 -6 4 -8 11 -4 16 3 6 -1 18 -9 27 -9 9 -17 24 -19 32 -2 8 -11
21 -20 28 -10 7 -18 20 -18 28 0 8 -5 14 -11 14 -5 0 -8 4 -5 9 3 5 -1 12 -10
15 -9 4 -14 9 -11 12 3 3 -16 28 -43 55 -27 27 -46 49 -43 49 8 0 -140 143
-193 187 -22 18 -53 39 -70 48 -17 8 -37 21 -44 30 -7 8 -20 15 -30 15 -10 0
-23 6 -29 14 -7 8 -40 25 -74 37 -52 19 -87 22 -222 25 -102 2 -188 -2 -236
-10z m315 -196 c36 -11 68 -24 70 -29 3 -5 25 -18 48 -29 51 -24 170 -123 250
-207 99 -104 109 -115 102 -115 -4 0 2 -10 13 -22 11 -13 29 -39 39 -58 10
-19 23 -38 27 -41 5 -3 9 -24 10 -46 1 -23 6 -39 11 -36 4 3 5 -5 1 -18 -7
-21 -10 -48 -16 -166 -1 -18 -6 -33 -10 -33 -4 0 -6 -20 -5 -46 1 -25 -1 -47
-5 -50 -4 -2 -6 -17 -5 -34 1 -16 -2 -30 -7 -30 -4 0 -5 -6 -1 -12 12 -19 12
-122 0 -130 -7 -5 -6 -8 2 -8 7 0 10 -5 7 -10 -4 -6 -1 -17 5 -25 7 -8 9 -15
5 -15 -4 0 -2 -7 5 -15 7 -8 10 -15 6 -15 -4 0 0 -13 9 -29 l15 -30 -70 6
c-69 6 -108 -6 -94 -29 3 -5 2 -17 -2 -26 -4 -9 -8 -33 -9 -52 -1 -19 -3 -35
-5 -35 -2 0 -10 -41 -12 -67 -1 -10 -5 -18 -9 -18 -8 0 -22 -40 -20 -58 1 -7
-5 -15 -13 -18 -9 -3 -14 -10 -11 -14 3 -4 -7 -16 -22 -25 -24 -16 -33 -17
-92 -5 -36 7 -73 16 -81 21 -39 19 -138 58 -165 65 -16 4 -41 15 -54 26 -13
10 -32 18 -41 18 -10 0 -23 7 -30 15 -7 8 -19 15 -26 15 -41 0 -324 223 -324
256 0 5 -9 16 -20 24 -11 8 -20 20 -20 26 0 6 -7 17 -15 24 -9 7 -13 15 -11
17 2 3 -3 13 -12 23 -34 37 -41 48 -35 54 4 3 1 6 -6 6 -7 0 -9 5 -6 10 3 6 1
10 -6 10 -7 0 -9 3 -6 7 4 3 0 11 -7 17 -8 6 -16 20 -18 31 -2 11 -7 23 -13
27 -5 4 -10 11 -10 15 -1 4 -7 19 -15 33 -8 14 -15 28 -16 33 -1 4 -3 9 -4 12
-1 3 -3 8 -4 13 -4 12 -30 67 -36 72 -6 6 -12 28 -14 52 -1 9 -7 22 -13 30
-12 16 -38 108 -35 125 1 6 -2 14 -8 18 -8 5 -8 11 0 20 8 9 7 17 -3 26 -14
15 -16 96 -3 117 4 7 4 16 1 22 -3 5 7 22 22 37 16 16 29 32 30 36 4 14 57 54
103 78 25 12 57 31 72 41 14 10 35 18 45 18 10 0 24 5 30 11 15 15 167 64 258
84 140 29 195 30 279 5z"/>
<path d="M4595 5610 c-141 -28 -215 -68 -313 -170 -31 -33 -63 -83 -62 -96 1
-3 -7 -13 -17 -22 -10 -9 -20 -26 -21 -37 -2 -11 -10 -27 -18 -36 -7 -8 -12
-25 -9 -37 2 -12 -1 -22 -7 -22 -5 0 -8 -7 -4 -15 3 -8 1 -15 -4 -15 -6 0 -10
-8 -10 -18 0 -10 -5 -23 -12 -30 -8 -8 -9 -12 -1 -12 11 0 7 -36 -7 -55 -4 -5
-6 -19 -4 -30 1 -10 -1 -24 -6 -30 -5 -6 -7 -20 -6 -30 2 -11 1 -24 -3 -30 -3
-5 -7 -23 -8 -40 -7 -72 -12 -97 -23 -110 -7 -8 -8 -15 -3 -15 17 0 10 -30 -6
-31 -9 0 -11 -3 -5 -5 12 -5 7 -44 -6 -44 -4 0 -6 -16 -5 -34 2 -19 -3 -46
-10 -60 -7 -13 -11 -27 -8 -29 2 -3 -3 -19 -11 -36 -9 -16 -16 -39 -16 -51 0
-12 -8 -35 -17 -53 -9 -18 -16 -35 -15 -39 1 -5 -2 -8 -8 -8 -5 0 -7 -7 -4
-15 4 -8 1 -15 -6 -15 -7 0 -10 -7 -6 -15 3 -8 1 -15 -4 -15 -6 0 -10 -6 -10
-14 0 -7 -7 -19 -15 -26 -8 -7 -13 -16 -10 -20 3 -4 -2 -11 -11 -14 -8 -3 -12
-10 -9 -16 3 -5 1 -10 -6 -10 -7 0 -9 -3 -6 -6 4 -4 -15 -33 -41 -64 -26 -32
-63 -77 -82 -101 -51 -64 -255 -264 -345 -339 -42 -36 -87 -74 -99 -86 -40
-40 -147 -124 -157 -124 -6 0 -7 -4 -4 -10 3 -5 1 -10 -6 -10 -10 0 -47 -28
-105 -81 -12 -10 -26 -19 -31 -19 -5 0 -24 -16 -43 -35 -19 -19 -39 -35 -45
-35 -7 0 -25 -13 -41 -30 -16 -16 -34 -30 -39 -30 -6 0 -22 -11 -37 -25 -15
-14 -30 -25 -33 -25 -3 0 -16 -9 -28 -21 -12 -11 -43 -34 -69 -51 -27 -17 -48
-35 -48 -39 0 -4 -8 -10 -17 -13 -10 -3 -31 -18 -48 -32 -16 -14 -36 -29 -43
-33 -8 -4 -14 -23 -15 -42 -2 -29 4 -39 40 -67 46 -37 59 -60 43 -76 -8 -8
-14 -6 -21 7 -6 9 -16 17 -23 17 -8 0 -19 7 -26 15 -16 20 -74 19 -105 -1 -51
-33 -301 3 -560 81 -74 22 -263 63 -400 86 -170 29 -420 30 -525 1 -188 -51
-354 -139 -510 -270 -65 -55 -180 -172 -180 -183 0 -3 -14 -24 -31 -45 -16
-21 -37 -64 -46 -96 -9 -32 -20 -58 -24 -58 -4 0 -5 -16 -3 -35 1 -19 -1 -37
-6 -40 -5 -3 -7 -14 -5 -25 2 -11 0 -22 -6 -25 -11 -7 -12 -85 -1 -85 8 0 14
-33 15 -82 1 -16 5 -28 10 -28 4 0 7 -6 6 -12 -8 -43 82 -221 118 -235 7 -3
11 -8 8 -12 -7 -12 145 -105 226 -139 117 -48 263 -83 404 -97 39 -3 94 -11
124 -17 37 -7 77 -7 130 1 42 5 130 17 196 26 213 29 546 108 695 166 30 11
75 28 100 38 97 37 195 99 248 158 29 33 36 47 30 56 -2 2 3 12 11 21 8 9 16
29 18 44 9 62 9 83 1 88 -4 3 -8 14 -8 25 0 10 -4 27 -9 37 -5 9 -15 31 -22
47 -22 49 -71 118 -158 219 -83 97 -121 125 -168 126 -24 0 -43 -3 -43 -8 0
-4 -16 -16 -35 -26 -19 -11 -35 -23 -35 -28 0 -4 -7 -8 -15 -8 -27 0 -19 -67
12 -99 81 -82 150 -161 145 -166 -3 -3 -1 -5 5 -5 11 0 79 -101 75 -112 -1 -5
2 -8 8 -8 20 0 2 -61 -25 -83 -29 -23 -110 -73 -135 -84 -200 -81 -372 -130
-705 -198 -112 -23 -307 -31 -402 -16 -71 12 -223 48 -231 55 -1 2 26 7 60 11
68 9 65 8 91 19 12 6 15 15 11 35 -3 14 -6 32 -6 39 -1 6 -5 12 -9 12 -4 0
-11 10 -15 22 -7 23 -74 93 -114 119 -57 37 -140 79 -154 79 -9 0 -16 2 -16 4
0 6 51 65 79 93 13 13 21 23 18 23 -3 0 25 31 62 70 37 38 65 70 62 70 -3 0
29 31 70 70 41 38 79 70 85 70 6 0 17 6 23 14 24 29 116 66 171 68 l55 3 15
58 c14 56 14 60 -5 73 -23 17 -161 19 -220 3 -52 -14 -120 -46 -135 -65 -7 -7
-17 -14 -22 -14 -5 0 -28 -17 -51 -37 -59 -54 -208 -203 -203 -203 3 0 -5 -11
-17 -24 -82 -87 -107 -116 -107 -123 0 -5 -8 -13 -18 -20 -13 -8 -19 -24 -20
-55 -2 -42 -1 -44 48 -71 l50 -28 -20 -21 c-12 -14 -20 -36 -20 -58 0 -35 3
-38 76 -76 81 -42 138 -89 149 -124 4 -12 5 -23 3 -25 -2 -3 -47 17 -99 42
-89 45 -176 113 -162 127 3 3 1 6 -6 6 -7 0 -9 4 -6 10 3 5 2 10 -3 10 -11 0
-32 45 -32 70 0 11 -4 20 -9 20 -4 0 -6 11 -3 25 2 14 0 25 -4 25 -5 0 -9 25
-10 55 0 30 3 55 8 55 4 0 8 8 8 18 0 31 20 91 36 107 9 8 13 15 9 15 -3 0 10
20 31 45 20 25 43 45 51 45 8 0 12 4 9 8 -7 12 55 78 82 86 12 4 22 13 22 21
0 8 9 17 20 20 11 4 32 17 45 31 13 13 31 24 40 24 8 0 15 3 15 8 0 4 17 16
37 27 21 10 49 27 63 36 42 27 161 71 245 90 73 16 90 16 195 3 63 -7 138 -19
165 -25 91 -20 379 -89 435 -104 178 -48 239 -58 409 -64 169 -6 174 -7 156
-24 -10 -10 -20 -31 -22 -45 -9 -57 -11 -172 -4 -172 5 0 7 -13 5 -30 -2 -16
1 -30 6 -30 6 0 9 -3 8 -8 -3 -12 44 -102 54 -102 5 0 6 -4 3 -10 -3 -5 -1
-10 6 -10 7 0 10 -3 6 -6 -5 -5 121 -135 165 -169 37 -30 108 -75 117 -75 6 0
11 -4 11 -9 0 -5 12 -12 27 -16 15 -3 30 -10 33 -14 8 -11 277 -94 360 -111
25 -5 99 -20 165 -35 228 -49 497 -94 563 -95 60 0 73 18 72 98 0 12 4 22 9
22 9 0 7 37 -4 63 -4 11 -14 16 -23 12 -8 -3 -54 2 -101 11 -47 8 -135 24
-196 35 -323 59 -664 146 -717 184 -12 8 -30 15 -38 15 -9 0 -27 11 -40 25
-13 14 -27 25 -32 25 -16 0 -72 51 -147 136 -44 49 -91 139 -88 165 4 23 48
89 59 89 6 0 8 3 5 7 -4 3 11 24 33 45 22 22 40 43 40 46 0 4 9 12 19 17 10 6
43 26 73 46 66 46 176 91 288 120 203 51 435 3 955 -196 33 -13 114 -44 180
-70 66 -25 167 -65 225 -87 58 -22 114 -44 125 -49 11 -5 34 -13 50 -18 17 -5
89 -30 160 -56 134 -48 234 -81 295 -95 19 -5 53 -13 75 -18 214 -53 331 -66
540 -59 304 11 457 58 941 288 192 92 384 162 512 188 210 43 569 -51 942
-247 126 -65 126 -66 268 -151 122 -73 194 -99 224 -80 7 5 9 9 4 9 -5 0 1 11
14 25 13 14 19 25 15 25 -5 0 1 7 13 16 19 13 22 24 20 56 -2 33 -8 44 -33 57
-16 9 -55 31 -85 50 -30 19 -68 42 -85 51 -110 60 -150 84 -153 92 -2 4 -8 8
-13 8 -6 0 -60 24 -122 54 -231 112 -351 155 -559 202 -112 25 -141 28 -328
28 -217 1 -236 -2 -413 -58 -98 -31 -345 -138 -481 -207 -69 -36 -269 -117
-366 -149 -119 -39 -282 -70 -378 -70 -81 0 -246 24 -307 44 -22 8 -62 18 -90
24 -27 5 -63 14 -80 20 -16 6 -66 22 -110 36 -44 14 -132 44 -195 66 -63 23
-133 48 -155 55 -22 7 -84 31 -139 54 -54 22 -103 41 -110 41 -6 1 -29 9 -51
20 -22 11 -43 19 -47 20 -4 0 -19 5 -35 12 -39 16 -110 43 -163 62 -25 9 -58
23 -75 30 -88 39 -323 115 -485 156 -186 47 -562 38 -706 -17 -28 -10 -13 13
24 37 20 14 48 35 62 48 14 12 28 22 33 22 4 0 20 11 35 25 15 14 34 28 44 30
9 3 42 30 74 60 32 30 61 55 66 55 7 0 41 27 72 56 6 6 34 27 61 48 28 21 64
50 80 65 17 14 59 51 94 81 36 30 107 96 158 145 51 50 98 95 105 102 19 17
43 47 41 50 -1 1 25 29 57 62 32 34 56 61 52 61 -3 0 12 18 33 40 21 22 35 40
30 40 -6 0 -5 4 2 8 16 10 103 159 103 177 0 7 5 17 10 20 6 4 8 11 5 16 -4 5
-1 9 5 9 7 0 10 6 7 13 -3 8 3 20 13 27 10 7 15 20 13 31 -3 11 -1 19 4 19 5
0 10 9 11 20 4 43 6 50 13 50 4 0 6 8 4 18 -1 9 2 22 7 29 5 7 7 17 4 22 -4 5
-2 12 4 16 5 3 10 17 10 31 0 13 4 24 8 24 8 0 12 29 12 83 0 15 3 27 8 27 4
0 7 15 7 33 -1 17 2 37 8 44 5 7 6 17 2 23 -3 5 -3 16 2 23 9 15 14 47 16 107
1 25 7 51 14 58 7 7 10 19 7 27 -4 8 -2 15 4 15 6 0 8 9 5 20 -3 11 -1 20 3
20 5 0 10 15 11 33 4 50 6 57 15 57 4 0 7 3 6 8 -5 27 89 170 130 196 8 4 23
17 33 27 11 11 19 17 19 14 0 -2 20 4 45 15 25 11 67 22 95 26 35 5 51 12 55
24 7 21 4 91 -4 105 -3 6 -6 18 -7 28 -1 9 -2 22 -3 27 -1 12 -97 11 -156 0z"/>
<path d="M3875 5371 c-11 -5 -29 -18 -39 -30 -11 -11 -24 -21 -30 -21 -18 -1
-227 -196 -218 -204 2 -3 -3 -8 -12 -12 -9 -3 -16 -10 -16 -15 0 -6 -5 -15
-10 -22 -46 -55 -116 -181 -112 -199 1 -5 -3 -8 -9 -8 -5 0 -7 -4 -4 -10 3 -5
1 -10 -6 -10 -6 0 -9 -8 -6 -20 3 -11 1 -20 -5 -20 -5 0 -8 -6 -6 -12 3 -7 -1
-19 -9 -26 -7 -7 -13 -23 -14 -35 0 -12 -3 -31 -5 -42 -3 -11 -6 -26 -6 -32
-1 -7 -4 -13 -8 -13 -7 0 -9 -13 -12 -62 -1 -16 -6 -28 -11 -28 -5 0 -7 -7 -4
-15 4 -8 2 -17 -4 -21 -6 -3 -8 -12 -5 -20 3 -7 1 -16 -3 -19 -5 -3 -12 -28
-16 -55 -4 -28 -11 -50 -15 -50 -5 0 -7 -8 -5 -17 1 -10 0 -22 -4 -28 -5 -10
-9 -23 -15 -55 -2 -8 -8 -28 -15 -43 -6 -16 -11 -32 -11 -37 0 -5 -5 -21 -12
-37 -6 -15 -12 -35 -12 -43 -1 -8 -6 -22 -11 -30 -5 -8 -10 -17 -11 -20 0 -3
-5 -16 -11 -30 -6 -14 -16 -39 -23 -57 -7 -17 -18 -34 -27 -37 -8 -3 -11 -10
-8 -16 3 -5 2 -10 -2 -10 -5 0 -17 -15 -28 -32 -10 -18 -41 -55 -69 -83 -27
-27 -49 -53 -48 -57 1 -5 -2 -8 -7 -8 -4 0 -23 -14 -42 -30 -19 -17 -47 -42
-62 -55 -15 -14 -31 -25 -36 -25 -4 0 -15 -8 -25 -19 -12 -13 -147 -110 -164
-117 -1 0 -4 -15 -6 -33 -3 -24 2 -35 17 -46 12 -8 18 -15 13 -15 -17 0 41
-50 60 -51 46 -5 73 3 98 26 15 14 29 25 32 25 8 0 124 88 183 140 80 68 192
180 226 224 17 21 35 44 40 50 6 6 11 18 13 26 2 8 8 18 13 21 6 3 11 16 12
27 1 12 4 22 8 22 7 0 18 25 20 45 0 6 7 17 15 26 8 9 11 19 7 22 -3 4 -1 7 6
7 7 0 9 5 6 10 -3 6 -3 16 2 23 4 6 9 18 10 25 2 6 5 20 7 30 3 9 5 21 5 25 1
5 4 6 9 4 4 -3 7 5 8 16 1 31 11 75 21 89 4 7 6 21 5 31 -2 9 1 17 6 17 6 0 9
8 7 18 -1 9 2 22 7 29 5 7 7 17 3 23 -3 5 -2 10 4 10 5 0 8 9 6 20 -2 11 0 22
5 25 5 3 7 14 5 25 -2 11 0 20 4 20 7 0 32 92 32 122 0 10 4 20 9 23 5 3 7 12
3 20 -3 8 0 15 7 15 7 0 10 6 7 14 -3 8 -2 16 3 18 5 2 11 17 13 33 7 46 18
75 29 75 5 0 6 9 3 20 -4 11 -2 20 4 20 6 0 10 4 9 9 -2 5 2 18 9 28 67 100
81 123 76 123 -3 0 8 14 25 30 18 17 29 30 27 30 -12 0 120 122 147 136 15 8
28 19 28 24 0 5 11 12 25 16 14 3 25 9 25 13 0 4 11 13 25 19 38 17 32 51 -18
105 -36 39 -49 47 -77 46 -19 0 -44 -4 -55 -8z"/>
<path d="M4815 4565 c1 -19 -2 -35 -7 -35 -4 0 -8 -10 -8 -22 1 -27 -9 -87
-17 -108 -11 -28 -14 -45 -14 -67 0 -12 -4 -25 -9 -28 -6 -4 -8 -11 -5 -16 4
-5 1 -9 -5 -9 -7 0 -10 -7 -6 -15 3 -8 2 -15 -2 -15 -4 0 -15 -22 -25 -50 -10
-27 -22 -50 -28 -50 -6 0 -8 -4 -4 -9 3 -5 1 -12 -5 -16 -5 -3 -17 -21 -26
-40 -9 -19 -27 -46 -41 -60 -14 -14 -23 -25 -20 -25 2 0 -35 -40 -85 -90 -49
-49 -93 -90 -97 -90 -4 0 -21 -12 -38 -27 -18 -16 -41 -35 -54 -43 -12 -8 -34
-25 -49 -37 -15 -13 -33 -23 -39 -23 -6 0 -11 -4 -11 -8 0 -5 -18 -18 -40 -31
-22 -12 -40 -26 -40 -32 0 -5 -5 -9 -11 -9 -6 0 -45 -22 -86 -50 -41 -27 -79
-50 -84 -50 -5 0 -9 -4 -9 -9 0 -5 -8 -11 -17 -14 -10 -4 -36 -18 -58 -32 -22
-13 -51 -30 -65 -37 -14 -7 -27 -15 -30 -18 -3 -4 -25 -18 -50 -31 -25 -14
-62 -35 -82 -47 -58 -34 -104 -60 -145 -83 -21 -11 -42 -25 -46 -29 -14 -13
-14 -82 0 -87 7 -3 13 -11 13 -18 0 -37 106 -60 139 -31 9 8 50 31 91 52 41
21 77 41 80 45 3 4 28 19 55 34 28 14 70 39 95 55 25 16 51 29 58 29 6 1 12 6
12 11 0 6 5 10 11 10 5 0 38 20 73 44 35 24 78 52 97 61 19 10 37 22 40 27 4
6 21 -11 39 -36 19 -25 37 -46 42 -46 5 0 6 -4 3 -10 -3 -5 -2 -10 3 -10 9 0
62 -76 62 -90 0 -4 7 -11 16 -14 9 -4 14 -9 10 -13 -3 -4 3 -17 15 -29 12 -13
19 -30 16 -38 -4 -10 -1 -16 8 -16 8 0 15 -9 15 -19 0 -11 5 -21 10 -23 18 -6
15 -138 -3 -138 -5 0 -7 -7 -3 -15 3 -8 1 -15 -5 -15 -6 0 -8 -4 -4 -9 3 -5 1
-12 -3 -15 -12 -7 -12 -106 -1 -106 5 0 10 0 12 0 1 0 24 -7 51 -15 27 -8 66
-15 87 -15 33 0 41 5 56 33 9 17 16 38 15 45 -2 6 1 12 7 12 5 0 8 8 6 18 -1
9 0 22 4 27 7 12 10 29 16 78 3 21 7 42 10 47 3 5 1 12 -5 15 -8 5 -8 11 0 20
7 8 7 14 1 17 -5 1 -12 19 -14 38 -3 19 -6 35 -7 35 -1 0 -3 7 -5 15 -7 35
-10 45 -15 50 -3 3 -16 28 -29 55 -14 28 -29 53 -35 57 -6 4 -11 11 -11 15 -1
12 -94 140 -123 170 -7 7 -10 13 -7 13 4 0 -3 8 -16 19 -26 21 -23 27 41 71
19 13 40 29 46 35 6 5 40 35 75 65 66 58 150 140 143 140 -3 0 8 13 23 29 45
47 57 63 82 111 13 25 30 53 39 63 8 9 12 17 8 17 -3 0 1 15 11 33 28 53 70
182 68 210 0 15 4 27 9 27 5 0 7 3 3 6 -3 3 0 25 7 47 6 23 13 74 15 113 l3
71 -32 7 c-18 3 -63 6 -100 6 l-67 0 2 -35z"/>
<path d="M3709 2464 c-1 -2 -2 -7 -3 -11 -1 -5 -12 -27 -24 -51 -12 -23 -23
-59 -25 -79 -2 -41 9 -50 108 -86 22 -8 72 -27 110 -42 39 -15 86 -33 105 -40
275 -105 506 -201 667 -277 45 -21 84 -38 87 -38 2 0 41 -22 86 -50 45 -27 84
-50 87 -50 3 0 20 -13 38 -29 l33 -29 -97 -20 c-155 -33 -531 -76 -811 -92
-85 -5 -218 -14 -295 -20 -140 -10 -460 -24 -886 -39 -201 -7 -229 -10 -250
-27 -24 -19 -40 -92 -17 -78 7 5 8 2 2 -7 -4 -8 -10 -22 -11 -33 -3 -17 2 -18
46 -14 28 3 50 2 49 -1 -3 -33 -3 -33 315 -27 171 4 418 13 547 21 129 8 321
19 425 25 105 7 222 14 260 18 39 3 99 7 135 9 36 2 115 10 175 18 61 8 124
14 140 14 17 0 44 3 60 6 17 3 80 14 140 24 152 27 233 54 277 93 44 40 72
104 58 138 -1 3 -3 12 -5 20 -8 36 -37 91 -50 97 -8 3 -15 12 -15 20 0 8 -4
12 -9 9 -5 -3 -11 0 -14 8 -3 8 -17 20 -30 28 -14 7 -49 29 -78 49 -30 19
-101 59 -159 88 -104 52 -441 201 -490 216 -14 4 -53 21 -87 36 -33 16 -68 29
-75 29 -8 0 -23 7 -34 15 -10 8 -25 15 -32 15 -8 0 -28 6 -45 14 -18 7 -50 20
-72 29 -22 8 -71 27 -110 42 -38 15 -86 33 -105 40 -35 14 -119 27 -121 19z"/>
</g>
</svg>
