<?xml version="1.0" encoding="UTF-8" standalone="no"?>
<svg
   width="415"
   height="105"
   viewBox="0 0 415 105"
   version="1.1"
   id="svg6"
   sodipodi:docname="2dd71bf8d7944e0642459e22478fe3ba.svg"
   xmlns:inkscape="http://www.inkscape.org/namespaces/inkscape"
   xmlns:sodipodi="http://sodipodi.sourceforge.net/DTD/sodipodi-0.dtd"
   xmlns="http://www.w3.org/2000/svg"
   xmlns:svg="http://www.w3.org/2000/svg">
  <defs
     id="defs10" />
  <sodipodi:namedview
     id="namedview8"
     pagecolor="#ffffff"
     bordercolor="#666666"
     borderopacity="1.0"
     inkscape:pageshadow="2"
     inkscape:pageopacity="0.0"
     inkscape:pagecheckerboard="0" />
  <rect
     width="100%"
     height="100%"
     fill="#DDDDDD"
     id="rect2" />
  <path
     d="M87.16 57.57L99.70 57.57L99.70 44.09Q99.70 42.18 99.96 39.87L99.96 39.87L87.16 57.57ZM105.83 57.57L111.01 57.57L111.01 61.65Q111.01 62.22 110.64 62.63Q110.27 63.05 109.59 63.05L109.59 63.05L105.83 63.05L105.83 73.11L99.70 73.11L99.70 63.05L82.31 63.05Q81.60 63.05 81.06 62.60Q80.52 62.16 80.38 61.51L80.38 61.51L79.63 57.94L99.16 31.87L105.83 31.87L105.83 57.57ZM134.55 67.83L141.96 67.83L141.96 73.11L119.16 73.11L119.16 67.83L127.51 67.83L127.51 43.81Q127.51 42.38 127.60 40.87L127.60 40.87L121.67 45.83Q121.16 46.23 120.66 46.33Q120.16 46.43 119.72 46.34Q119.28 46.26 118.94 46.04Q118.59 45.83 118.42 45.57L118.42 45.57L116.20 42.53L128.77 31.84L134.55 31.84L134.55 67.83ZM158.55 38.28L157.10 46.86Q158.47 46.57 159.72 46.44Q160.97 46.32 162.14 46.32L162.14 46.32Q165.39 46.32 167.87 47.28Q170.35 48.25 172.03 49.96Q173.71 51.67 174.57 53.97Q175.42 56.26 175.42 58.91L175.42 58.91Q175.42 62.19 174.27 64.90Q173.11 67.61 171.06 69.53Q169.01 71.45 166.20 72.51Q163.40 73.56 160.09 73.56L160.09 73.56Q158.15 73.56 156.41 73.16Q154.68 72.76 153.15 72.09Q151.63 71.42 150.33 70.55Q149.03 69.69 148.01 68.72L148.01 68.72L150.17 65.72Q150.86 64.76 151.97 64.76L151.97 64.76Q152.68 64.76 153.42 65.21Q154.16 65.67 155.12 66.21Q156.07 66.75 157.37 67.21Q158.67 67.66 160.49 67.66L160.49 67.66Q162.43 67.66 163.91 67.04Q165.39 66.41 166.37 65.28Q167.36 64.16 167.86 62.60Q168.36 61.05 168.36 59.23L168.36 59.23Q168.36 55.86 166.40 53.97Q164.45 52.07 160.63 52.07L160.63 52.07Q157.70 52.07 154.62 53.16L154.62 53.16L150.23 51.90L153.65 31.89L174.00 31.89L174.00 34.89Q174.00 36.40 173.06 37.34Q172.12 38.28 169.87 38.28L169.87 38.28L158.55 38.28ZM222.42 63.67L218.69 67.35L209.02 57.69L199.28 67.41L195.54 63.73L205.29 53.95L196.00 44.66L199.71 40.96L209.00 50.25L218.23 41.01L221.99 44.72L212.73 53.98L222.42 63.67ZM261.44 67.83L268.85 67.83L268.85 73.11L246.05 73.11L246.05 67.83L254.40 67.83L254.40 43.81Q254.40 42.38 254.48 40.87L254.48 40.87L248.55 45.83Q248.04 46.23 247.54 46.33Q247.04 46.43 246.60 46.34Q246.16 46.26 245.82 46.04Q245.48 45.83 245.31 45.57L245.31 45.57L243.08 42.53L255.65 31.84L261.44 31.84L261.44 67.83ZM304.04 52.50L304.04 52.50Q304.04 57.89 302.89 61.86Q301.74 65.84 299.70 68.43Q297.66 71.03 294.88 72.29Q292.10 73.56 288.88 73.56L288.88 73.56Q285.66 73.56 282.91 72.29Q280.16 71.03 278.14 68.43Q276.11 65.84 274.97 61.86Q273.83 57.89 273.83 52.50L273.83 52.50Q273.83 47.09 274.97 43.12Q276.11 39.16 278.14 36.57Q280.16 33.98 282.91 32.71Q285.66 31.44 288.88 31.44L288.88 31.44Q292.10 31.44 294.88 32.71Q297.66 33.98 299.70 36.57Q301.74 39.16 302.89 43.12Q304.04 47.09 304.04 52.50ZM296.78 52.50L296.78 52.50Q296.78 48.03 296.12 45.09Q295.47 42.15 294.37 40.42Q293.27 38.68 291.85 37.98Q290.42 37.28 288.88 37.28L288.88 37.28Q287.37 37.28 285.96 37.98Q284.55 38.68 283.47 40.42Q282.38 42.15 281.74 45.09Q281.10 48.03 281.10 52.50L281.10 52.50Q281.10 56.97 281.74 59.91Q282.38 62.85 283.47 64.58Q284.55 66.32 285.96 67.02Q287.37 67.72 288.88 67.72L288.88 67.72Q290.42 67.72 291.85 67.02Q293.27 66.32 294.37 64.58Q295.47 62.85 296.12 59.91Q296.78 56.97 296.78 52.50ZM318.49 38.28L317.04 46.86Q318.41 46.57 319.66 46.44Q320.92 46.32 322.08 46.32L322.08 46.32Q325.33 46.32 327.81 47.28Q330.29 48.25 331.97 49.96Q333.66 51.67 334.51 53.97Q335.37 56.26 335.37 58.91L335.37 58.91Q335.37 62.19 334.21 64.90Q333.06 67.61 331.00 69.53Q328.95 71.45 326.15 72.51Q323.34 73.56 320.03 73.56L320.03 73.56Q318.09 73.56 316.36 73.16Q314.62 72.76 313.09 72.09Q311.57 71.42 310.27 70.55Q308.97 69.69 307.95 68.72L307.95 68.72L310.11 65.72Q310.80 64.76 311.91 64.76L311.91 64.76Q312.62 64.76 313.36 65.21Q314.10 65.67 315.06 66.21Q316.01 66.75 317.31 67.21Q318.61 67.66 320.43 67.66L320.43 67.66Q322.37 67.66 323.85 67.04Q325.33 66.41 326.32 65.28Q327.30 64.16 327.80 62.60Q328.30 61.05 328.30 59.23L328.30 59.23Q328.30 55.86 326.35 53.97Q324.39 52.07 320.57 52.07L320.57 52.07Q317.64 52.07 314.56 53.16L314.56 53.16L310.17 51.90L313.59 31.89L333.94 31.89L333.94 34.89Q333.94 36.40 333.00 37.34Q332.06 38.28 329.81 38.28L329.81 38.28L318.49 38.28Z"
     fill="#999999"
     id="path4" />
</svg>
