<svg xmlns="http://www.w3.org/2000/svg" xmlns:xlink="http://www.w3.org/1999/xlink" width="600" height="400" viewBox="0 0 600 400"><rect width="100%" height="100%" fill="#EEE"/><path d="M147.39 218.78L193.81 218.78L193.81 168.88Q193.81 161.81 194.76 153.26L194.76 153.26L147.39 218.78ZM216.50 218.78L235.70 218.78L235.70 233.87Q235.70 235.98 234.33 237.51Q232.95 239.03 230.42 239.03L230.42 239.03L216.50 239.03L216.50 276.28L193.81 276.28L193.81 239.03L129.46 239.03Q126.82 239.03 124.82 237.40Q122.81 235.76 122.29 233.34L122.29 233.34L119.54 220.15L191.81 123.62L216.50 123.62L216.50 218.78ZM358.18 200L358.18 200Q358.18 219.94 353.91 234.66Q349.64 249.37 342.09 258.97Q334.55 268.57 324.26 273.27Q313.98 277.96 302.06 277.96L302.06 277.96Q290.14 277.96 279.95 273.27Q269.77 268.57 262.28 258.97Q254.79 249.37 250.57 234.66Q246.35 219.94 246.35 200L246.35 200Q246.35 179.95 250.57 165.29Q254.79 150.63 262.28 141.03Q269.77 131.43 279.95 126.73Q290.14 122.04 302.06 122.04L302.06 122.04Q313.98 122.04 324.26 126.73Q334.55 131.43 342.09 141.03Q349.64 150.63 353.91 165.29Q358.18 179.95 358.18 200ZM331.28 200L331.28 200Q331.28 183.44 328.85 172.57Q326.43 161.70 322.37 155.27Q318.30 148.83 313.03 146.25Q307.75 143.66 302.06 143.66L302.06 143.66Q296.47 143.66 291.24 146.25Q286.02 148.83 282.01 155.27Q278.00 161.70 275.63 172.57Q273.26 183.44 273.26 200L273.26 200Q273.26 216.56 275.63 227.43Q278.00 238.30 282.01 244.73Q286.02 251.17 291.24 253.75Q296.47 256.34 302.06 256.34L302.06 256.34Q307.75 256.34 313.03 253.75Q318.30 251.17 322.37 244.73Q326.43 238.30 328.85 227.43Q331.28 216.56 331.28 200ZM392.15 218.78L438.57 218.78L438.57 168.88Q438.57 161.81 439.52 153.26L439.52 153.26L392.15 218.78ZM461.26 218.78L480.46 218.78L480.46 233.87Q480.46 235.98 479.09 237.51Q477.71 239.03 475.18 239.03L475.18 239.03L461.26 239.03L461.26 276.28L438.57 276.28L438.57 239.03L374.22 239.03Q371.58 239.03 369.58 237.40Q367.57 235.76 367.05 233.34L367.05 233.34L364.30 220.15L436.57 123.62L461.26 123.62L461.26 218.78Z" fill="#31343C"/></svg>